<svg xmlns="http://www.w3.org/2000/svg" width="120" height="38" class="logo__svg"><path d="M16.536 31.086c2.06 0 4.121-.777 5.368-2.477l.67.34c-1.437 5.052-5.032 8.015-10.688 8.015C5.368 36.964 0 33.029 0 24.674 0 15.54 6.374 11.8 14.139 11.8c2.492 0 5.512.388 8.58 1.603l-3.5 8.647-4.361-7.19c-.24-.486-.431-.631-.863-.631h-.335c-2.588 0-3.883 3.352-3.883 7.675 0 6.898 3.26 9.181 6.759 9.181m26.138-6.563c0-7.463-1.338-10.08-3.49-10.08-2.104 0-3.395 2.471-3.395 9.79 0 7.462 1.339 10.08 3.49 10.08 2.152 0 3.395-2.569 3.395-9.79m-17.022 0c0-7.948 4.925-12.697 13.723-12.697 8.655 0 13.436 4.604 13.436 12.406 0 7.9-4.925 12.697-13.627 12.697-8.75 0-13.532-4.555-13.532-12.406m84.872.582c.048-.727.048-1.357.048-2.084 0-8.045-5.164-11.195-11.906-11.195-7.029 0-12.528 4.119-12.528 12.697 0 8.384 5.403 12.406 12.528 12.406 6.503 0 10.185-3.004 11.62-8.432l-.718-.29c-1.817 2.228-4.208 3.13-7.173 3.1-3.361-.032-6.34-2.072-6.732-6.75-.44-8.326.859-10.227 2.955-10.211 2.103.016 3.141 1.593 3.142 7.936l-6.029 2.823h14.793zM73.13 30.528l.003-13.905c-.383-.727-1.291-1.309-2.535-1.309-2.199 0-4.35 1.842-4.35 8.433 0 6.251 1.96 8.48 4.111 8.48.909 0 2.112-.484 2.772-1.699zm-.001 5.821v-5.818c-.43 3.182-3.774 6.397-7.073 6.397-5.02 0-9.515-3.634-9.515-12.309 0-9.402 5.307-12.794 10.758-12.794 2.965 0 4.83 1.017 5.834 2.278V5.767c0-.582 0-.727-.335-1.115L70.79 2.326v-.678L82.36 0v32.373c0 .533 0 .678.335 1.018l2.008 2.277v.682H73.13zm42.125-33.334c-2.211 0-4.01 1.823-4.01 4.064 0 2.242 1.799 4.065 4.01 4.065 2.212 0 4.01-1.823 4.01-4.065 0-2.24-1.798-4.064-4.01-4.064m0 8.81c-2.582 0-4.682-2.129-4.682-4.746 0-2.616 2.1-4.745 4.682-4.745 2.582 0 4.682 2.129 4.682 4.745 0 2.617-2.1 4.746-4.682 4.746"/><path d="M115.254 6.753l-1.191-1.207-1.168 1.184 2.359 2.39 2.359-2.39-1.168-1.184z"/></svg>
