<svg xmlns="http://www.w3.org/2000/svg" viewBox="0 0 192 56" width="192" height="56"><path fill="#665F56" d="M40.8 48.4v4.9h-.6v-4.9l-3.6-4.2h.8l3.1 3.7 3.1-3.7h.8zm5.4 5.1c-1.8 0-3.1-1.3-3.1-3.1s1.3-3.1 3.1-3.1 3.1 1.3 3.1 3.1c0 1.7-1.3 3.1-3.1 3.1m0-5.6c-1.4 0-2.4 1-2.4 2.6 0 1.4 1 2.6 2.4 2.6s2.4-1 2.4-2.6-1-2.6-2.4-2.6m8.6 4.5c-.6.8-1 1.1-2 1.1s-2.3-.7-2.3-2.5v-3.8h.7V51c0 1.2.8 1.8 1.7 1.8s1.4-.5 2-1.3v-4.3h.7v6.1h-.7l-.1-.9zm3.1-7.3c0 .7-.3 1.4-.9 1.9v-.5c.3-.4.3-.7.3-1.1H57v-1.3h.9v1zm1.6-.9h.7v9.3h-.7zm2.3 0h.7v9.3h-.7zm6.6 0h.7v9.3h-.7zm5.1 9.3c-1.8 0-3.1-1.3-3.1-3.1s1.3-3.1 3.1-3.1 3.1 1.3 3.1 3.1c0 1.7-1.3 3.1-3.1 3.1m0-5.6c-1.4 0-2.4 1-2.4 2.6 0 1.4 1 2.6 2.4 2.6s2.4-1 2.4-2.6-1-2.6-2.4-2.6m6.4 5.6h-.4l-2.7-6.2h.7l2.2 5.1 2.2-5.1h.7zm3.6-3.4c-.2 1.5 1 2.7 2.5 2.7.9 0 1.5-.3 2.3-.9v.8c-.8.6-1.4.9-2.4.9-1.8 0-3-1.3-3-3.2 0-1.8 1.1-3.1 2.7-3.1 1.3 0 2.6.9 2.6 2.9h-4.7zm4-.5c-.2-1.2-.9-1.8-1.9-1.8-1 0-1.8.7-2 1.8h3.9zm12.2 3.9h-.4l-1.8-4.9-1.9 4.9h-.3l-2.6-6.2h.6l2.1 5 1.9-5h.4l1.8 5 2.1-5h.6zm4-5.2c.6-.9 1.1-1.1 2-1.1 1.3 0 2.3.9 2.3 2.5v3.7h-.7V50c0-1.3-.5-2.1-1.6-2.1-.9 0-1.4.5-2 1.3v4.3h-.7v-9.3h.7v4.1zm10.7 4.6c-.7.6-.9.7-1.2.7s-.4-.2-.5-.8c-.7.6-1.2.8-1.9.8-.9 0-1.6-.7-1.6-1.5 0-1.6 1.8-2.2 3.5-2.2V49c0-.9-.5-1.2-1.3-1.2-.7 0-1.1.2-1.9.8v-.7c.8-.5 1.3-.7 2-.7.8 0 1.9.3 1.9 1.6v3.8c0 .3 0 .3.2.3s.6-.3.9-.6v.6zm-1.7-2.6c-1.6-.1-2.9.7-2.9 1.7 0 .6.5 1 1.2 1 .6 0 1-.2 1.7-.8v-1.9zm3.6-3h1.7v.6h-1.7v3.6c0 1 0 1.4.9 1.4.4 0 .6-.1 1.1-.3v.7c-.1.1-.3.1-.6.2-.2.1-.5.1-.7.1-.7 0-1.4-.4-1.4-1.3v-4.4H114v-.6h1.6v-1.4l.5-.6h.2v2zm13 6.2h-.3l-1.9-4.9-1.9 4.9h-.2l-2.7-6.2h.7l2 5 1.9-5h.4l1.8 5 2.2-5h.7zm3.5-3.4c-.2 1.5 1 2.7 2.5 2.7.9 0 1.5-.3 2.3-.9v.8c-.8.6-1.4.9-2.4.9-1.8 0-3-1.3-3-3.2 0-1.8 1.1-3.1 2.7-3.1 1.3 0 2.6.9 2.6 2.9h-4.7zm4.1-.5c-.2-1.2-.9-1.8-1.9-1.8-1 0-1.8.7-2 1.8h3.9zm11.2 3.7h-.7v-.5c-.7.5-1.1.6-1.8.6-1.7 0-3-1.4-3-3.1 0-1.8 1.3-3.1 3-3.1.7 0 1 .1 1.8.5v-3.5h.7v9.1zm-.6-4.9c-.7-.4-1.1-.6-1.8-.6-1.4 0-2.4 1-2.4 2.5s1 2.6 2.6 2.6c.6 0 1-.1 1.6-.6v-3.9zm5 5.1c-1.8 0-3.1-1.3-3.1-3.1s1.3-3.1 3.1-3.1 3.1 1.3 3.1 3.1c0 1.7-1.3 3.1-3.1 3.1m0-5.6c-1.4 0-2.4 1-2.4 2.6 0 1.4 1 2.6 2.4 2.6 1.3 0 2.4-1 2.4-2.6s-1.1-2.6-2.4-2.6M21.4 2.9v12.3H2.7V2.9H.1v27.5h2.6V17.6h18.7v12.8h2.7V2.9zm10.9 0h2.6v27.4h-2.6zm10.3 0v27.5h18.6V28H45.4V2.9zm23 0v27.5h18.6V28H68.4V2.9zm36.2-.1L88 30.4h3l4.5-9.2H110l4.6 9.2h3l-14-27.5h-1.8zm.9 3.8l6.2 12.1h-12l5.8-12.1zm45.6 31.1c-2.5 0-4.7-1-6.8-2.9-2.7-2.6-5-6.2-7-9.6-2.3-3.7-4.2-6.8-5.8-6.8h-4.4v11.8h-2.6V2.8h8.4c2.6 0 4.4.2 5.9.8 3.3 1.2 5.1 3.6 5.1 6.8 0 4.1-3 6.9-8.2 7.6 1.1.9 2.4 3 4 5.6 1.9 3.1 4.1 6.7 6.6 9.2 1.7 1.6 3.4 2.5 5.3 2.5.4 0 1.7 0 2.6-.4l.3-.1.7 2.4-.2.1c-1.3.2-2.6.4-3.9.4M129 16.1c2.2 0 3.6-.2 4.8-.5 2.8-.9 4.4-2.6 4.4-5.2 0-2-1-3.5-3-4.4-1.5-.7-3.1-.8-5.3-.8h-5.6V16h4.7zm37.3-13.2l-9.8 14-10.4-14H143l12 16.5v11h2.7V19.5l11.7-16.6zm14.2 27.8c-4.4 0-8.1-1.1-10.3-3.1l-.2-.2 1.5-2 .2.2c2 1.7 5 2.6 8.7 2.6 4.3 0 8.8-1.5 8.8-5.9 0-3.5-3.7-4.1-7.9-4.7-3-.5-6.2-1-8.2-2.8-1.3-1.1-2-2.7-2-4.7 0-4.6 4.1-7.6 10.5-7.6 4.2 0 7.9 1.3 9.6 2.6l.2.2-1.3 2-.2-.2c-1.1-.8-4.2-2.2-8-2.2-5.8 0-7.9 2.6-7.9 5 0 3.9 4 4.5 8.1 5.2 4.6.8 9.8 1.5 9.8 7.2.2 5.2-4.3 8.4-11.4 8.4"/></svg>
